<?xml version="1.0" encoding="utf-8"?>
<!-- Generator: Adobe Illustrator 22.0.1, SVG Export Plug-In . SVG Version: 6.00 Build 0)  -->
<svg version="1.1" id="Lager_1" xmlns="http://www.w3.org/2000/svg" xmlns:xlink="http://www.w3.org/1999/xlink" x="0px" y="0px"
	 viewBox="0 0 48 48" style="enable-background:new 0 0 48 48;" xml:space="preserve">
<path d="M24.3,6h-0.6C22.8,6,22,6.8,22,7.7v16.6c0,1,0.8,1.7,1.7,1.7h0.6c0.9,0,1.7-0.8,1.7-1.7V7.7C26,6.8,25.2,6,24.3,6z
	 M34.5,11.5l-0.4,0.4c-0.7,0.7-0.6,1.7,0,2.4c2.9,3,4.4,7.2,3.7,11.8c-0.9,6.2-6,11-12.2,11.8C17.2,38.9,10,32.3,10,24
	c0-3.8,1.5-7.1,3.9-9.7c0.7-0.7,0.7-1.8,0-2.4l-0.4-0.4c-0.7-0.7-1.8-0.7-2.5,0C7.7,15,5.7,19.9,6,25.3C6.6,33.8,13.4,41,22,41.9
	c10.8,1.2,20-7.3,20-17.9c0-4.8-1.9-9.2-5.1-12.5C36.3,10.8,35.2,10.8,34.5,11.5z"/>
</svg>
