    <?xml version="1.0" encoding="utf-8"?>
<!-- Generator: Adobe Illustrator 22.0.1, SVG Export Plug-In . SVG Version: 6.00 Build 0)  -->
<svg version="1.1" id="Lager_1" xmlns="http://www.w3.org/2000/svg" xmlns:xlink="http://www.w3.org/1999/xlink" x="0px" y="0px"
	 viewBox="0 0 48 48" style="enable-background:new 0 0 48 48;fill:#9A9A9A; xml:space="preserve">
<style type="text/css">
	.st0{fill:none;}
</style>
<path d="M29.4,26.8c2.3-2.7,3-5.6,2.5-9.5c-0.7-5.8-5.4-10.5-11.2-11.2C12.2,5,5,12.2,6.1,20.7c0.7,5.8,5.4,10.5,11.2,11.2
	c3.9,0.5,6.9-0.3,9.6-2.6l9.8,10.4c0.7,0.7,1.9,0.7,2.6,0l0.4-0.4c0.7-0.7,0.7-1.9,0-2.6L29.4,26.8z M19,28c-5,0-9-4-9-9s4-9,9-9
	s9,4,9,9S24,28,19,28z"/>
<path class="st0" d="M0,0h48v48H0V0z"/>
</svg>
